# xmcd
#
# Track frame offsets:
#	150
#	25188
#	60213
#	82263
#	107463
#	133038
#	154038
#	172713
#	181038
#
# Disc length: 2802 seconds
#
# Revision: 2
# Processed by: cddbd v1.5.1PL0 Copyright (c) Steve Scherf et al.
# Submitted via: audiograbber 1.83.01
#
DISCID=5e0af009
DTITLE=Various Artist - Ishq Vishk
DYEAR=2003
DGENRE=Hindi Film Soundtrack
TTITLE0=Kumar Sanu and Alisha Chinai - Chot Dil Pe Lagi
TTITLE1=Alisha Chinai, Sonu Nigam, and Kumar Sanu - Mujhpe Har Haseena
TTITLE2=Alka Yagnik - Aisa Kyon Hota Hai
TTITLE3=Alka Yagnik and Kumar Sanu - Aankhon Ne Tumhari
TTITLE4=Sonu Nigam, Priya, and Prachi - Love Love Tum Karo
TTITLE5=Alisha Chinai and Udit Narayan - Kaun Hai Woh
TTITLE6=Kumar Sanu and Alka Yagnik  - Dooba Re Dooba
TTITLE7=Alka Yagnik - Mujse Huee Bas Yeh
TTITLE8=Alka Yagnik and Kumar Sanu - Ishq Viskh Pyaar Vyaar
EXTD=
EXTT0=
EXTT1=
EXTT2=
EXTT3=
EXTT4=
EXTT5=
EXTT6=
EXTT7=
EXTT8=
PLAYORDER=
